<svg width="500" height="500" viewBox="0 0 500 500" xmlns="http://www.w3.org/2000/svg">
  <g fill="none" stroke="#90ee90" stroke-width="0.5">
    <!-- Main stem -->
    <path d="M250,50 C250,150 250,350 250,450" />
    
    <!-- Left side fronds -->
    <path d="M250,100 C200,120 150,110 100,90" />
    <path d="M250,150 C200,170 150,160 100,140" />
    <path d="M250,200 C200,220 150,210 100,190" />
    <path d="M250,250 C200,270 150,260 100,240" />
    <path d="M250,300 C200,320 150,310 100,290" />
    <path d="M250,350 C200,370 150,360 100,340" />
    <path d="M250,400 C200,420 150,410 100,390" />
    
    <!-- Right side fronds -->
    <path d="M250,100 C300,120 350,110 400,90" />
    <path d="M250,150 C300,170 350,160 400,140" />
    <path d="M250,200 C300,220 350,210 400,190" />
    <path d="M250,250 C300,270 350,260 400,240" />
    <path d="M250,300 C300,320 350,310 400,290" />
    <path d="M250,350 C300,370 350,360 400,340" />
    <path d="M250,400 C300,420 350,410 400,390" />
    
    <!-- Small details on left fronds -->
    <path d="M220,105 C200,110 180,105 160,95" />
    <path d="M220,155 C200,160 180,155 160,145" />
    <path d="M220,205 C200,210 180,205 160,195" />
    <path d="M220,255 C200,260 180,255 160,245" />
    <path d="M220,305 C200,310 180,305 160,295" />
    <path d="M220,355 C200,360 180,355 160,345" />
    <path d="M220,405 C200,410 180,405 160,395" />
    
    <!-- Small details on right fronds -->
    <path d="M280,105 C300,110 320,105 340,95" />
    <path d="M280,155 C300,160 320,155 340,145" />
    <path d="M280,205 C300,210 320,205 340,195" />
    <path d="M280,255 C300,260 320,255 340,245" />
    <path d="M280,305 C300,310 320,305 340,295" />
    <path d="M280,355 C300,360 320,355 340,345" />
    <path d="M280,405 C300,410 320,405 340,395" />
  </g>
</svg>

