<svg xmlns="http://www.w3.org/2000/svg" xmlns:xlink="http://www.w3.org/1999/xlink" zoomAndPan="magnify" preserveAspectRatio="xMidYMid meet" version="1.0" viewBox="0.02 0 3602.53 967.6"><defs><clipPath id="2b01076097"><path d="M 324 522.722656 L 736 522.722656 L 736 968 L 324 968 Z M 324 522.722656 " clip-rule="nonzero"/></clipPath><clipPath id="61be50660e"><path d="M 2800 522.722656 L 3212 522.722656 L 3212 968 L 2800 968 Z M 2800 522.722656 " clip-rule="nonzero"/></clipPath><clipPath id="5ee5a49c07"><path d="M 3201.167969 364.128906 L 3285.917969 364.128906 L 3285.917969 448.878906 L 3201.167969 448.878906 Z M 3201.167969 364.128906 " clip-rule="nonzero"/></clipPath></defs><path fill="#0c0c0c" d="M 0.015625 529.96875 L 305.609375 529.96875 L 305.609375 603.453125 L 86.574219 603.453125 L 86.574219 706.171875 L 272.210938 706.171875 L 272.210938 780.242188 L 86.574219 780.242188 L 86.574219 957.03125 L 0.015625 957.03125 Z M 0.015625 529.96875 " fill-opacity="1" fill-rule="nonzero"/><g clip-path="url(#2b01076097)"><path fill="#0c0c0c" d="M 324.070312 745.457031 C 324.070312 617.679688 404.042969 522.722656 529.996094 522.722656 C 655.953125 522.722656 735.332031 617.679688 735.332031 745.457031 C 735.332031 873.234375 655.953125 967.601562 529.996094 967.601562 C 404.042969 967.601562 324.070312 873.234375 324.070312 745.457031 Z M 647.015625 745.457031 C 647.015625 660.03125 608.792969 593.792969 530.648438 593.792969 C 452.507812 593.792969 412.457031 660.097656 412.457031 745.457031 C 412.457031 830.816406 452.441406 896.53125 530.648438 896.53125 C 608.855469 896.53125 647.015625 830.230469 647.015625 745.457031 Z M 647.015625 745.457031 " fill-opacity="1" fill-rule="nonzero"/></g><path fill="#0c0c0c" d="M 778.894531 819.59375 L 778.894531 529.96875 L 865.457031 529.96875 L 865.457031 819.59375 C 865.457031 863.773438 887.566406 894.839844 945.417969 894.839844 C 1000.34375 894.839844 1025.976562 862.601562 1025.976562 818.417969 L 1025.976562 529.96875 L 1112.535156 529.96875 L 1112.535156 819.59375 C 1112.535156 910.957031 1056.4375 964.078125 947.1875 964.078125 C 837.925781 964.078125 778.828125 912.132812 778.828125 819.59375 Z M 778.894531 819.59375 " fill-opacity="1" fill-rule="nonzero"/><path fill="#0c0c0c" d="M 1174.574219 529.96875 L 1262.300781 529.96875 L 1404.371094 768.234375 C 1418.136719 791.53125 1434.246094 827.945312 1434.246094 827.945312 L 1435.417969 827.945312 C 1435.417969 827.945312 1433.003906 783.765625 1433.003906 753.878906 L 1433.003906 529.96875 L 1518.386719 529.96875 L 1518.386719 956.964844 L 1434.832031 956.964844 L 1289.179688 721.050781 C 1275.484375 698.339844 1258.71875 661.925781 1258.71875 661.925781 L 1257.542969 661.925781 C 1257.542969 661.925781 1259.957031 706.695312 1259.957031 736.582031 L 1259.957031 956.964844 L 1174.640625 956.964844 L 1174.640625 529.96875 Z M 1174.574219 529.96875 " fill-opacity="1" fill-rule="nonzero"/><path fill="#0c0c0c" d="M 1584.011719 529.96875 L 1750.535156 529.96875 C 1864.550781 529.96875 1937.9375 621.921875 1937.9375 747.9375 C 1937.9375 817.179688 1914.648438 878.132812 1869.902344 915.722656 C 1838.269531 942.023438 1797.109375 956.902344 1743.363281 956.902344 L 1584.011719 956.902344 Z M 1737.359375 882.308594 C 1818.570312 882.308594 1850.140625 832.777344 1850.140625 747.9375 C 1850.140625 663.101562 1813.152344 604.039062 1739.707031 604.039062 L 1670.5 604.039062 L 1670.5 882.308594 Z M 1737.359375 882.308594 " fill-opacity="1" fill-rule="nonzero"/><path fill="#0c0c0c" d="M 2078.761719 529.96875 L 2168.320312 529.96875 L 2318.738281 956.964844 L 2228.589844 956.964844 L 2199.953125 866.191406 L 2045.953125 866.191406 L 2017.902344 956.964844 L 1930.175781 956.964844 Z M 2066.238281 799.886719 L 2179.015625 799.886719 L 2140.789062 676.871094 C 2133.621094 654.160156 2123.511719 611.152344 2123.511719 611.152344 L 2122.335938 611.152344 C 2122.335938 611.152344 2111.574219 654.160156 2104.398438 676.871094 L 2066.171875 799.886719 Z M 2066.238281 799.886719 " fill-opacity="1" fill-rule="nonzero"/><path fill="#0c0c0c" d="M 2278.746094 529.96875 L 2621.96875 529.96875 L 2621.96875 602.800781 L 2493.667969 602.800781 L 2493.667969 956.902344 L 2407.109375 956.902344 L 2407.109375 602.867188 L 2278.808594 602.867188 L 2278.808594 529.96875 Z M 2278.746094 529.96875 " fill-opacity="1" fill-rule="nonzero"/><path fill="#0c0c0c" d="M 2666.066406 529.96875 L 2752.628906 529.96875 L 2752.628906 956.964844 L 2666.066406 956.964844 Z M 2666.066406 529.96875 " fill-opacity="1" fill-rule="nonzero"/><g clip-path="url(#61be50660e)"><path fill="#0c0c0c" d="M 2800.304688 745.457031 C 2800.304688 617.679688 2880.277344 522.722656 3006.230469 522.722656 C 3132.1875 522.722656 3211.574219 617.679688 3211.574219 745.457031 C 3211.574219 873.234375 3132.1875 967.601562 3006.230469 967.601562 C 2880.277344 967.601562 2800.304688 873.234375 2800.304688 745.457031 Z M 3123.25 745.457031 C 3123.25 660.03125 3085.027344 593.792969 3006.886719 593.792969 C 2928.742188 593.792969 2888.691406 660.097656 2888.691406 745.457031 C 2888.691406 830.816406 2928.675781 896.53125 3006.886719 896.53125 C 3085.089844 896.53125 3123.25 830.230469 3123.25 745.457031 Z M 3123.25 745.457031 " fill-opacity="1" fill-rule="nonzero"/></g><path fill="#0c0c0c" d="M 3258.726562 529.96875 L 3346.460938 529.96875 L 3488.527344 768.234375 C 3502.289062 791.53125 3518.402344 827.945312 3518.402344 827.945312 L 3519.578125 827.945312 C 3519.578125 827.945312 3517.160156 783.765625 3517.160156 753.878906 L 3517.160156 529.96875 L 3602.546875 529.96875 L 3602.546875 956.964844 L 3518.992188 956.964844 L 3373.332031 721.050781 C 3359.636719 698.339844 3342.871094 661.925781 3342.871094 661.925781 L 3341.695312 661.925781 C 3341.695312 661.925781 3344.117188 706.695312 3344.117188 736.582031 L 3344.117188 956.964844 L 3258.792969 956.964844 L 3258.792969 529.96875 Z M 3258.726562 529.96875 " fill-opacity="1" fill-rule="nonzero"/><path fill="#0c0c0c" d="M 1079.023438 223.320312 C 1079.023438 96.714844 1157.816406 0 1283.761719 0 C 1388.84375 0 1450.871094 62.714844 1459.808594 143.898438 L 1373.839844 143.898438 C 1366.078125 100.890625 1333.855469 72.828125 1283.699219 72.828125 C 1204.914062 72.828125 1167.339844 138.546875 1167.339844 223.320312 C 1167.339844 308.09375 1212.667969 373.222656 1284.351562 373.222656 C 1335.09375 373.222656 1370.90625 342.746094 1376.25 297.976562 L 1460.984375 297.976562 C 1458.570312 335.632812 1442.457031 372.046875 1413.824219 398.867188 C 1384.601562 426.34375 1343.378906 444.289062 1284.285156 444.289062 C 1164.34375 444.289062 1078.960938 351.75 1078.960938 223.320312 Z M 391.558594 8.351562 L 478.046875 8.351562 L 478.046875 363.101562 L 678.613281 363.101562 L 678.613281 435.347656 L 391.558594 435.347656 Z M 0.015625 8.351562 L 190.992188 8.351562 C 236.976562 8.351562 272.132812 19.707031 294.242188 39.414062 C 317.527344 60.296875 328.289062 86.007812 328.289062 119.421875 C 328.289062 163.015625 301.417969 191.078125 261.4375 204.847656 L 261.4375 206.609375 C 308.59375 220.316406 340.8125 259.730469 340.8125 312.332031 C 340.8125 352.335938 328.289062 379.808594 303.246094 401.28125 C 278.785156 422.75 241.152344 435.347656 195.820312 435.347656 L 0.015625 435.347656 Z M 180.230469 180.375 C 217.800781 180.375 243.5 162.429688 243.5 129.015625 C 243.5 97.363281 220.214844 78.832031 181.992188 78.832031 L 86.503906 78.832031 L 86.503906 180.375 Z M 86.570312 363.691406 L 186.230469 363.691406 C 228.039062 363.691406 253.085938 340.390625 253.085938 305.738281 C 253.085938 265.148438 223.214844 244.265625 183.820312 244.265625 L 86.503906 244.265625 L 86.503906 363.691406 Z M 935.191406 8.351562 L 845.644531 8.351562 L 697.058594 435.347656 L 784.789062 435.347656 L 812.832031 344.570312 L 966.824219 344.570312 L 995.460938 435.347656 L 1085.601562 435.347656 Z M 945.886719 278.265625 L 833.050781 278.265625 L 871.273438 155.25 C 878.449219 132.539062 889.210938 89.535156 889.210938 89.535156 L 890.386719 89.535156 C 890.386719 89.535156 900.496094 132.539062 907.671875 155.25 Z M 1592.28125 8.351562 L 1505.660156 8.351562 L 1505.660156 435.347656 L 1592.214844 435.347656 L 1592.214844 280.09375 L 1635.78125 235.910156 L 1773.078125 435.347656 L 1874.566406 435.347656 L 1696.703125 179.136719 L 1863.804688 8.351562 L 1756.382812 8.351562 L 1592.28125 178.546875 Z M 1908.023438 8.351562 L 2098.9375 8.351562 C 2144.917969 8.351562 2180.078125 19.707031 2202.1875 39.414062 C 2225.46875 60.296875 2236.230469 86.007812 2236.230469 119.421875 C 2236.230469 163.015625 2209.363281 191.078125 2169.382812 204.847656 L 2169.382812 206.609375 C 2216.535156 220.316406 2248.753906 259.730469 2248.753906 312.332031 C 2248.753906 352.335938 2236.230469 379.808594 2211.1875 401.28125 C 2186.726562 422.75 2149.097656 435.347656 2103.761719 435.347656 L 1908.023438 435.347656 Z M 2088.242188 180.375 C 2125.804688 180.375 2151.507812 162.429688 2151.507812 129.015625 C 2151.507812 97.363281 2128.226562 78.832031 2090 78.832031 L 1994.515625 78.832031 L 1994.515625 180.375 Z M 1994.515625 363.691406 L 2094.171875 363.691406 C 2135.980469 363.691406 2161.03125 340.390625 2161.03125 305.738281 C 2161.03125 265.148438 2131.15625 244.265625 2091.761719 244.265625 L 1994.449219 244.265625 L 1994.449219 363.691406 Z M 2386.640625 8.351562 L 2300.09375 8.351562 L 2300.09375 435.347656 L 2386.640625 435.347656 Z M 2452.847656 8.351562 L 2648.585938 8.351562 C 2730.960938 8.351562 2785.878906 56.121094 2785.878906 127.1875 C 2785.878906 177.375 2762.59375 215.550781 2707.671875 230.496094 L 2707.671875 232.257812 C 2747.070312 243.613281 2767.351562 266.324219 2772.707031 318.269531 C 2774.34375 334.703125 2775.347656 350.074219 2776.253906 363.878906 L 2776.261719 363.886719 C 2778.679688 400.71875 2780.359375 426.355469 2791.230469 431.105469 L 2791.230469 435.28125 L 2708.265625 435.28125 C 2699.308594 431.316406 2696.988281 397.59375 2694.398438 359.878906 L 2694.398438 359.875 C 2693.875 352.253906 2693.339844 344.472656 2692.738281 336.738281 C 2689.15625 290.140625 2662.867188 263.90625 2609.1875 263.90625 L 2539.332031 263.90625 L 2539.332031 435.28125 L 2452.78125 435.28125 L 2452.78125 8.351562 Z M 2539.398438 197.082031 L 2631.296875 197.082031 C 2678.457031 197.082031 2701.742188 172.609375 2701.742188 138.542969 C 2701.742188 104.476562 2679.632812 78.242188 2633.710938 78.242188 L 2539.398438 78.242188 Z M 3007.832031 8.351562 L 2841.316406 8.351562 L 2841.316406 435.28125 L 3000.65625 435.28125 C 3054.40625 435.28125 3095.5625 420.402344 3127.195312 394.101562 C 3171.933594 356.511719 3195.21875 295.558594 3195.21875 226.320312 C 3195.21875 100.300781 3121.84375 8.351562 3007.832031 8.351562 Z M 3107.496094 226.320312 C 3107.496094 311.15625 3075.929688 360.6875 2994.722656 360.6875 L 2927.863281 360.6875 L 2927.863281 82.421875 L 2997.070312 82.421875 C 3070.511719 82.421875 3107.496094 141.480469 3107.496094 226.320312 Z M 3107.496094 226.320312 " fill-opacity="1" fill-rule="evenodd"/><g clip-path="url(#5ee5a49c07)"><path fill="#ff0000" d="M 3284.890625 407.226562 C 3284.441406 407.96875 3283.671875 408.40625 3282.914062 408.832031 C 3283.234375 409.296875 3283.222656 409.917969 3283.078125 410.464844 C 3282.9375 411.007812 3282.675781 411.519531 3282.53125 412.066406 C 3282.386719 412.609375 3282.421875 413.332031 3282.738281 413.796875 C 3282.304688 413.816406 3281.9375 414.164062 3281.761719 414.566406 C 3281.585938 414.96875 3281.554688 415.410156 3281.519531 415.847656 C 3281.480469 416.28125 3281.421875 416.734375 3281.195312 417.105469 L 3281.203125 417.105469 C 3281.832031 417.355469 3282.480469 417.621094 3282.925781 418.128906 C 3283.054688 418.277344 3283.164062 418.445312 3283.230469 418.628906 C 3283.386719 419.050781 3283.324219 419.527344 3283.148438 419.941406 C 3282.976562 420.355469 3282.703125 420.71875 3282.433594 421.078125 C 3282.785156 421.425781 3283.359375 421.820312 3283.519531 422.289062 C 3283.621094 422.589844 3283.628906 422.914062 3283.675781 423.226562 C 3283.828125 424.335938 3284.417969 425.382812 3284.382812 426.503906 C 3284.378906 426.621094 3284.296875 426.714844 3284.195312 426.773438 C 3284.097656 426.832031 3283.988281 426.867188 3283.886719 426.917969 C 3283.539062 427.09375 3283.355469 427.492188 3283.28125 427.878906 C 3283.207031 428.265625 3283.21875 428.664062 3283.136719 429.046875 C 3282.972656 429.828125 3282.371094 430.464844 3281.851562 431.074219 C 3282.136719 431.429688 3282.421875 431.789062 3282.585938 432.214844 C 3282.746094 432.636719 3282.765625 433.140625 3282.523438 433.523438 C 3282.230469 433.996094 3281.519531 434.21875 3280.980469 434.359375 C 3281.378906 434.746094 3281.796875 435.167969 3281.875 435.714844 C 3281.929688 436.09375 3281.8125 436.480469 3281.863281 436.859375 C 3281.90625 437.1875 3282.070312 437.488281 3282.285156 437.742188 C 3282.496094 437.992188 3282.757812 438.203125 3283.011719 438.410156 C 3282.546875 439.105469 3282.59375 440.101562 3282.8125 440.910156 C 3283.03125 441.71875 3283.417969 442.472656 3283.632812 443.28125 C 3283.90625 444.316406 3283.886719 445.421875 3283.582031 446.445312 C 3282.191406 446.777344 3280.585938 446.777344 3279.234375 446.316406 C 3278.613281 446.105469 3278.015625 445.8125 3277.375 445.671875 C 3276.734375 445.535156 3275.960938 445.554688 3275.4375 445.953125 C 3275.199219 445.558594 3274.832031 445.246094 3274.40625 445.074219 C 3273.910156 444.875 3273.363281 444.867188 3272.835938 444.785156 C 3272.308594 444.699219 3271.722656 444.472656 3271.425781 444.027344 C 3271.300781 444.582031 3271.039062 445.109375 3270.671875 445.542969 C 3270.542969 445.699219 3270.382812 445.851562 3270.179688 445.882812 C 3270.027344 445.902344 3269.878906 445.851562 3269.734375 445.796875 C 3269.199219 445.585938 3268.664062 445.261719 3268.191406 444.929688 C 3267.910156 444.914062 3267.660156 445.097656 3267.464844 445.296875 C 3267.269531 445.5 3267.101562 445.738281 3266.863281 445.886719 C 3266.257812 446.269531 3265.433594 445.96875 3264.765625 446.230469 C 3264.21875 446.441406 3263.753906 446.960938 3263.453125 447.46875 C 3263.261719 447.304688 3263.003906 447.246094 3262.753906 447.226562 C 3262.503906 447.203125 3262.25 447.214844 3262.003906 447.15625 C 3261.636719 447.074219 3261.316406 446.859375 3260.957031 446.742188 C 3260.449219 446.578125 3259.890625 446.628906 3259.386719 446.460938 C 3258.8125 446.273438 3258.363281 445.832031 3257.933594 445.402344 C 3257.402344 445.800781 3257.15625 445.886719 3256.539062 446.132812 C 3256.292969 446.234375 3256.023438 446.320312 3255.761719 446.257812 C 3255.546875 446.203125 3255.367188 446.050781 3255.210938 445.894531 C 3254.75 445.4375 3254.378906 444.847656 3254.121094 444.246094 C 3253.445312 444.59375 3252.605469 444.335938 3251.882812 444.566406 C 3251.378906 444.726562 3250.925781 445.15625 3250.75 445.660156 C 3250.382812 445.308594 3249.800781 445.308594 3249.320312 445.457031 C 3248.835938 445.609375 3248.402344 445.882812 3247.917969 446.03125 C 3247.265625 446.234375 3246.539062 446.191406 3245.914062 445.914062 L 3245.914062 445.777344 C 3245.679688 446.675781 3245.035156 447.460938 3244.199219 447.867188 C 3243.960938 447.980469 3243.699219 448.066406 3243.441406 448.027344 C 3243.226562 447.992188 3243.03125 447.875 3242.851562 447.746094 C 3242.199219 447.277344 3241.640625 446.675781 3241.222656 445.988281 C 3240.480469 446.113281 3239.726562 446.242188 3239.035156 445.941406 C 3238.679688 445.789062 3238.375 445.535156 3238.011719 445.398438 C 3237.445312 445.191406 3236.769531 445.328125 3236.324219 445.734375 C 3236.234375 445.300781 3235.859375 444.941406 3235.457031 444.761719 C 3235.054688 444.582031 3234.605469 444.53125 3234.164062 444.484375 C 3233.726562 444.4375 3233.277344 444.386719 3232.875 444.203125 C 3232.804688 444.84375 3232.546875 445.339844 3232.113281 445.820312 C 3231.9375 446.015625 3231.722656 446.191406 3231.464844 446.230469 C 3231.300781 446.257812 3231.128906 446.222656 3230.964844 446.179688 C 3230.375 446.019531 3229.816406 445.753906 3229.320312 445.394531 C 3228.515625 445.667969 3228.039062 446.511719 3227.207031 446.699219 C 3226.816406 446.785156 3226.398438 446.707031 3226.007812 446.792969 C 3225.703125 446.863281 3225.425781 447.023438 3225.125 447.113281 C 3224.59375 447.269531 3223.988281 447.195312 3223.515625 447.480469 C 3223.261719 446.910156 3222.652344 446.449219 3222.054688 446.277344 C 3221.703125 446.175781 3221.332031 446.167969 3220.972656 446.089844 C 3220.289062 445.945312 3219.542969 445.417969 3219.128906 444.859375 C 3218.820312 445.140625 3218.765625 445.195312 3218.402344 445.40625 C 3218.039062 445.617188 3217.613281 445.742188 3217.199219 445.679688 C 3216.824219 445.625 3216.480469 445.40625 3216.238281 445.117188 C 3215.996094 444.824219 3215.796875 444.335938 3215.75 443.957031 C 3215.433594 444.464844 3214.851562 444.777344 3214.257812 444.835938 C 3213.855469 444.878906 3213.441406 444.8125 3213.042969 444.886719 C 3212.480469 444.992188 3211.890625 445.472656 3211.65625 445.988281 C 3211.160156 445.621094 3210.496094 445.574219 3209.882812 445.660156 C 3208.902344 445.796875 3207.988281 446.226562 3207.035156 446.480469 C 3205.929688 446.777344 3204.390625 446.78125 3203.519531 446.449219 C 3203.210938 445.425781 3203.195312 444.316406 3203.46875 443.285156 C 3203.683594 442.476562 3204.070312 441.71875 3204.285156 440.910156 C 3204.503906 440.101562 3204.554688 439.109375 3204.089844 438.414062 C 3204.347656 438.203125 3204.601562 437.996094 3204.816406 437.742188 C 3205.03125 437.488281 3205.195312 437.191406 3205.238281 436.863281 C 3205.285156 436.480469 3205.167969 436.097656 3205.222656 435.714844 C 3205.304688 435.171875 3205.722656 434.746094 3206.117188 434.363281 C 3205.578125 434.222656 3204.871094 433.996094 3204.578125 433.527344 C 3204.335938 433.140625 3204.355469 432.636719 3204.515625 432.214844 C 3204.675781 431.792969 3204.964844 431.429688 3205.25 431.074219 C 3204.730469 430.464844 3204.128906 429.832031 3203.960938 429.046875 C 3203.878906 428.664062 3203.894531 428.265625 3203.820312 427.878906 C 3203.746094 427.492188 3203.5625 427.097656 3203.214844 426.917969 C 3203.113281 426.867188 3203 426.835938 3202.902344 426.777344 C 3202.804688 426.71875 3202.722656 426.621094 3202.71875 426.507812 L 3202.71875 426.503906 C 3202.679688 425.386719 3203.269531 424.339844 3203.425781 423.226562 C 3203.472656 422.914062 3203.480469 422.589844 3203.582031 422.292969 C 3203.742188 421.820312 3204.3125 421.429688 3204.667969 421.078125 C 3204.394531 420.71875 3204.125 420.355469 3203.953125 419.941406 C 3203.777344 419.527344 3203.710938 419.050781 3203.871094 418.632812 C 3203.9375 418.445312 3204.046875 418.277344 3204.175781 418.128906 C 3204.617188 417.621094 3205.269531 417.355469 3205.894531 417.109375 L 3205.90625 417.105469 C 3205.679688 416.730469 3205.621094 416.285156 3205.582031 415.847656 C 3205.542969 415.414062 3205.515625 414.964844 3205.339844 414.566406 C 3205.164062 414.167969 3204.800781 413.820312 3204.363281 413.800781 C 3204.679688 413.332031 3204.714844 412.613281 3204.570312 412.066406 C 3204.425781 411.523438 3204.164062 411.011719 3204.023438 410.464844 C 3203.878906 409.917969 3203.867188 409.296875 3204.1875 408.832031 C 3203.429688 408.410156 3202.660156 407.972656 3202.207031 407.230469 C 3202.039062 406.949219 3201.921875 406.617188 3201.980469 406.296875 C 3202.023438 406.054688 3202.164062 405.835938 3202.316406 405.640625 C 3202.566406 405.320312 3202.851562 405.027344 3203.167969 404.777344 C 3203.382812 404.609375 3203.613281 404.449219 3203.78125 404.238281 C 3203.949219 404.023438 3204.050781 403.734375 3203.957031 403.476562 C 3203.910156 403.046875 3203.921875 402.53125 3204.058594 402.121094 C 3204.210938 401.660156 3204.550781 401.277344 3204.6875 400.808594 C 3204.847656 400.277344 3204.726562 399.648438 3204.363281 399.234375 C 3204.617188 399.125 3204.882812 399.011719 3205.0625 398.800781 C 3205.226562 398.613281 3205.308594 398.371094 3205.375 398.128906 C 3205.550781 397.453125 3205.613281 396.753906 3205.671875 396.0625 C 3205.679688 395.992188 3205.683594 395.917969 3205.648438 395.859375 C 3205.613281 395.800781 3205.386719 395.742188 3205.34375 395.796875 C 3204.578125 395.613281 3203.945312 394.945312 3203.808594 394.164062 C 3203.667969 393.386719 3204.027344 392.542969 3204.683594 392.101562 C 3204.109375 391.742188 3203.707031 391.109375 3203.503906 390.460938 C 3203.296875 389.816406 3203.230469 389.132812 3203.128906 388.464844 C 3203.023438 387.792969 3202.875 387.113281 3202.527344 386.535156 C 3203.070312 386.125 3203.660156 385.726562 3203.839844 385.097656 C 3203.972656 384.640625 3203.941406 384.144531 3204.050781 383.679688 C 3204.203125 383.035156 3204.625 382.460938 3205.195312 382.128906 C 3204.914062 381.773438 3204.636719 381.3125 3204.496094 380.878906 C 3204.355469 380.449219 3204.355469 379.957031 3204.589844 379.566406 C 3204.882812 379.074219 3205.542969 378.820312 3206.105469 378.6875 L 3206.128906 378.6875 C 3205.847656 378.484375 3205.859375 378.496094 3205.660156 378.214844 C 3205.414062 377.875 3205.308594 377.449219 3205.246094 377.035156 C 3205.183594 376.617188 3205.15625 376.191406 3205.039062 375.789062 C 3205.046875 375.5 3204.894531 375.15625 3204.652344 375 C 3204.492188 374.898438 3204.285156 374.832031 3204.207031 374.660156 C 3204.15625 374.546875 3204.179688 374.414062 3204.242188 374.308594 C 3204.308594 374.207031 3204.421875 374.109375 3204.53125 374.050781 C 3204.496094 372.898438 3204.023438 371.804688 3203.726562 370.6875 C 3203.359375 369.320312 3203.246094 367.882812 3203.398438 366.472656 C 3204.269531 366.136719 3205.9375 366.21875 3207.039062 366.515625 C 3207.996094 366.769531 3208.910156 367.199219 3209.890625 367.335938 C 3210.5 367.421875 3211.164062 367.375 3211.660156 367.007812 C 3211.894531 367.527344 3212.488281 368.007812 3213.046875 368.109375 C 3213.449219 368.183594 3213.859375 368.117188 3214.265625 368.160156 C 3214.859375 368.222656 3215.441406 368.53125 3215.753906 369.039062 C 3215.808594 368.660156 3216.003906 368.175781 3216.246094 367.882812 C 3216.488281 367.589844 3216.832031 367.375 3217.207031 367.316406 C 3217.621094 367.253906 3218.046875 367.378906 3218.410156 367.589844 C 3218.773438 367.800781 3218.828125 367.851562 3219.132812 368.140625 C 3219.550781 367.578125 3220.296875 367.050781 3220.980469 366.902344 C 3221.339844 366.828125 3221.710938 366.820312 3222.0625 366.71875 C 3222.660156 366.546875 3223.269531 366.085938 3223.519531 365.515625 C 3224 365.800781 3224.601562 365.722656 3225.132812 365.882812 C 3225.433594 365.972656 3225.707031 366.132812 3226.015625 366.203125 C 3226.410156 366.289062 3226.824219 366.210938 3227.214844 366.296875 C 3228.046875 366.484375 3228.523438 367.328125 3229.328125 367.601562 C 3229.824219 367.246094 3230.382812 366.976562 3230.972656 366.816406 C 3231.136719 366.773438 3231.304688 366.738281 3231.472656 366.765625 C 3231.730469 366.804688 3231.945312 366.980469 3232.117188 367.175781 C 3232.550781 367.65625 3232.8125 368.152344 3232.882812 368.792969 C 3233.285156 368.609375 3233.730469 368.558594 3234.171875 368.511719 C 3234.613281 368.464844 3235.058594 368.414062 3235.464844 368.234375 C 3235.871094 368.054688 3236.238281 367.695312 3236.328125 367.261719 C 3236.773438 367.671875 3237.453125 367.804688 3238.019531 367.597656 C 3238.382812 367.460938 3238.6875 367.207031 3239.042969 367.054688 C 3239.730469 366.757812 3240.488281 366.882812 3241.230469 367.007812 C 3241.648438 366.320312 3242.207031 365.71875 3242.859375 365.25 C 3243.039062 365.121094 3243.230469 365.003906 3243.449219 364.96875 C 3243.710938 364.929688 3243.972656 365.015625 3244.207031 365.128906 C 3245.042969 365.535156 3245.6875 366.320312 3245.921875 367.21875 L 3245.921875 367.082031 C 3246.546875 366.804688 3247.273438 366.761719 3247.925781 366.964844 C 3248.40625 367.113281 3248.84375 367.386719 3249.324219 367.539062 C 3249.808594 367.6875 3250.390625 367.683594 3250.757812 367.335938 C 3250.929688 367.835938 3251.382812 368.269531 3251.890625 368.429688 C 3252.613281 368.660156 3253.453125 368.402344 3254.125 368.75 C 3254.382812 368.148438 3254.757812 367.5625 3255.21875 367.101562 C 3255.375 366.941406 3255.554688 366.792969 3255.769531 366.738281 C 3256.027344 366.675781 3256.296875 366.761719 3256.546875 366.863281 C 3257.160156 367.109375 3257.410156 367.195312 3257.941406 367.59375 C 3258.367188 367.164062 3258.816406 366.722656 3259.390625 366.535156 C 3259.898438 366.367188 3260.457031 366.417969 3260.964844 366.253906 C 3261.320312 366.136719 3261.644531 365.921875 3262.011719 365.839844 C 3262.257812 365.785156 3262.511719 365.792969 3262.761719 365.769531 C 3263.011719 365.75 3263.269531 365.691406 3263.460938 365.527344 C 3263.761719 366.035156 3264.222656 366.554688 3264.773438 366.765625 C 3265.441406 367.023438 3266.265625 366.726562 3266.871094 367.109375 C 3267.109375 367.257812 3267.277344 367.496094 3267.472656 367.699219 C 3267.664062 367.898438 3267.917969 368.082031 3268.199219 368.066406 C 3268.671875 367.738281 3269.207031 367.414062 3269.742188 367.199219 C 3269.886719 367.144531 3270.035156 367.09375 3270.1875 367.113281 C 3270.390625 367.144531 3270.546875 367.292969 3270.679688 367.453125 C 3271.046875 367.886719 3271.308594 368.414062 3271.433594 368.96875 C 3271.730469 368.523438 3272.316406 368.296875 3272.84375 368.210938 C 3273.371094 368.128906 3273.914062 368.121094 3274.414062 367.921875 C 3274.839844 367.75 3275.207031 367.4375 3275.445312 367.042969 C 3275.96875 367.441406 3276.742188 367.464844 3277.382812 367.324219 C 3278.023438 367.183594 3278.617188 366.890625 3279.238281 366.679688 C 3280.589844 366.21875 3282.324219 366.140625 3283.71875 366.472656 C 3283.867188 367.882812 3283.753906 369.316406 3283.386719 370.6875 C 3283.085938 371.804688 3282.617188 372.894531 3282.585938 374.050781 C 3282.691406 374.105469 3282.804688 374.203125 3282.871094 374.308594 C 3282.9375 374.414062 3282.957031 374.546875 3282.90625 374.65625 C 3282.828125 374.832031 3282.621094 374.898438 3282.460938 375 C 3282.222656 375.15625 3282.066406 375.5 3282.074219 375.785156 C 3281.960938 376.191406 3281.933594 376.617188 3281.867188 377.03125 C 3281.800781 377.449219 3281.699219 377.871094 3281.453125 378.214844 C 3281.253906 378.496094 3281.265625 378.480469 3280.984375 378.6875 L 3281.007812 378.6875 C 3281.570312 378.820312 3282.226562 379.070312 3282.523438 379.566406 C 3282.757812 379.953125 3282.757812 380.449219 3282.617188 380.878906 C 3282.476562 381.3125 3282.199219 381.773438 3281.917969 382.128906 C 3282.488281 382.460938 3282.910156 383.035156 3283.0625 383.679688 C 3283.167969 384.144531 3283.140625 384.636719 3283.273438 385.097656 C 3283.457031 385.726562 3284.042969 386.125 3284.589844 386.53125 C 3284.238281 387.113281 3284.089844 387.792969 3283.988281 388.464844 C 3283.882812 389.132812 3283.816406 389.8125 3283.613281 390.460938 C 3283.40625 391.105469 3283.003906 391.738281 3282.429688 392.101562 C 3283.085938 392.539062 3283.445312 393.386719 3283.308594 394.164062 C 3283.167969 394.941406 3282.539062 395.609375 3281.769531 395.796875 C 3281.726562 395.742188 3281.5 395.800781 3281.464844 395.859375 C 3281.429688 395.917969 3281.4375 395.992188 3281.441406 396.058594 C 3281.5 396.757812 3281.566406 397.453125 3281.742188 398.128906 C 3281.804688 398.371094 3281.886719 398.613281 3282.050781 398.800781 C 3282.230469 399.007812 3282.496094 399.125 3282.753906 399.230469 C 3282.386719 399.648438 3282.265625 400.277344 3282.425781 400.808594 C 3282.5625 401.273438 3282.902344 401.660156 3283.054688 402.121094 C 3283.191406 402.527344 3283.203125 403.042969 3283.15625 403.476562 C 3283.0625 403.730469 3283.164062 404.023438 3283.332031 404.238281 C 3283.5 404.449219 3283.730469 404.605469 3283.945312 404.773438 C 3284.261719 405.027344 3284.546875 405.320312 3284.796875 405.640625 C 3284.949219 405.835938 3285.089844 406.050781 3285.132812 406.296875 C 3285.183594 406.617188 3285.0625 406.945312 3284.890625 407.226562 Z M 3284.890625 407.226562 " fill-opacity="1" fill-rule="nonzero"/><path fill="#000000" d="M 3201.167969 364.128906 L 3285.917969 364.128906 L 3285.917969 448.878906 L 3201.167969 448.878906 Z M 3201.167969 364.128906 " fill-opacity="1" fill-rule="nonzero"/></g></svg>