<svg xmlns="http://www.w3.org/2000/svg" xmlns:xlink="http://www.w3.org/1999/xlink" viewBox="0 0 2867 452" preserveAspectRatio="xMidYMid meet" style="width: 100%; height: 100%; transform: translate3d(0px, 0px, 0px); content-visibility: visible;"><defs><clipPath id="__lottie_element_43"><rect width="2867" height="452" x="0" y="0"></rect></clipPath></defs><g clip-path="url(#__lottie_element_43)"><g transform="matrix(1,0,0,1,2731.62109375,283.7929992675781)" opacity="1" style="display: block;"><g opacity="1" transform="matrix(1,0,0,1,0,0)"><path fill="rgb(0,0,0)" fill-opacity="1" d=" M135.51600646972656,-168.31100463867188 C135.51600646972656,-168.31100463867188 49.12799835205078,-168.31100463867188 49.12799835205078,-168.31100463867188 C49.12799835205078,-168.31100463867188 49.12799835205078,-168.18299865722656 49.12799835205078,-168.18299865722656 C49.12799835205078,-168.18299865722656 0.382999986410141,-44.6619987487793 0.382999986410141,-44.6619987487793 C0.382999986410141,-44.6619987487793 -47.85200119018555,-168.18299865722656 -47.85200119018555,-168.18299865722656 C-47.85200119018555,-168.18299865722656 -135.51600646972656,-168.18299865722656 -135.51600646972656,-168.18299865722656 C-135.51600646972656,-168.18299865722656 -43.3849983215332,66.48200225830078 -43.3849983215332,66.48200225830078 C-43.3849983215332,66.48200225830078 -83.197998046875,168.31100463867188 -83.197998046875,168.31100463867188 C-83.197998046875,168.31100463867188 3.572999954223633,168.31100463867188 3.572999954223633,168.31100463867188 C3.572999954223633,168.31100463867188 135.51600646972656,-168.31100463867188 135.51600646972656,-168.31100463867188z"></path></g></g><g transform="matrix(1,0,0,1,2520.991943359375,244.36300659179688)" opacity="1" style="display: block;"><g opacity="1" transform="matrix(1,0,0,1,0,0)"><path fill="rgb(0,0,0)" fill-opacity="1" d=" M88.36599731445312,-58.060001373291016 C88.36599731445312,-58.060001373291016 79.56099700927734,-128.88099670410156 79.56099700927734,-128.88099670410156 C79.56099700927734,-128.88099670410156 79.43399810791016,-128.88099670410156 79.43399810791016,-128.88099670410156 C79.43399810791016,-128.88099670410156 40.513999938964844,-128.88099670410156 40.513999938964844,-128.88099670410156 C16.652000427246094,-128.88099670410156 -2.871000051498413,-114.71700286865234 -11.293000221252441,-92.13099670410156 C-11.293000221252441,-92.13099670410156 -15.758999824523926,-128.88099670410156 -15.758999824523926,-128.88099670410156 C-15.758999824523926,-128.88099670410156 -88.36599731445312,-128.88099670410156 -88.36599731445312,-128.88099670410156 C-88.36599731445312,-128.88099670410156 -88.36599731445312,128.88099670410156 -88.36599731445312,128.88099670410156 C-88.36599731445312,128.88099670410156 -6.827000141143799,128.88099670410156 -6.827000141143799,128.88099670410156 C-6.827000141143799,128.88099670410156 -6.827000141143799,9.3149995803833 -6.827000141143799,9.3149995803833 C-6.827000141143799,-31.900999069213867 12.567999839782715,-58.060001373291016 46.25600051879883,-58.060001373291016 C46.25600051879883,-58.060001373291016 88.36599731445312,-58.060001373291016 88.36599731445312,-58.060001373291016z"></path></g></g><g transform="matrix(1,0,0,1,2287.68310546875,244.30099487304688)" opacity="1" style="display: block;"><g opacity="1" transform="matrix(1,0,0,1,0,0)"><path fill="rgb(0,0,0)" fill-opacity="1" d=" M39.301998138427734,29.28499984741211 C39.301998138427734,44.34199905395508 24.628000259399414,66.92900085449219 3.828000068664551,66.92900085449219 C-10.336000442504883,66.92900085449219 -20.54400062561035,59.016998291015625 -20.54400062561035,47.02199935913086 C-20.54400062561035,32.72999954223633 -9.0600004196167,24.819000244140625 9.569999694824219,24.819000244140625 C9.569999694824219,24.819000244140625 39.301998138427734,24.819000244140625 39.301998138427734,24.819000244140625 C39.301998138427734,24.819000244140625 39.301998138427734,29.28499984741211 39.301998138427734,29.28499984741211z M120.71399688720703,-26.988000869750977 C120.71399688720703,-89.89700317382812 72.47899627685547,-134.17599487304688 -1.0210000276565552,-134.17599487304688 C-1.0210000276565552,-134.17599487304688 -1.1490000486373901,-134.17599487304688 -1.1490000486373901,-134.17599487304688 C-56.9119987487793,-134.17599487304688 -111.90899658203125,-101.38200378417969 -120.71399688720703,-42.93899917602539 C-120.71399688720703,-42.93899917602539 -44.1510009765625,-34.516998291015625 -44.1510009765625,-34.516998291015625 C-38.79199981689453,-54.42300033569336 -21.05500030517578,-65.90799713134766 -1.1490000486373901,-65.90799713134766 C23.733999252319336,-65.90799713134766 39.17499923706055,-50.849998474121094 39.17499923706055,-26.988000869750977 C39.17499923706055,-26.988000869750977 5.104000091552734,-26.988000869750977 5.104000091552734,-26.988000869750977 C-58.1879997253418,-26.988000869750977 -101.19100189208984,1.3389999866485596 -101.19100189208984,57.612998962402344 C-101.19100189208984,106.74099731445312 -65.33399963378906,134.17599487304688 -21.437999725341797,134.17599487304688 C6.506999969482422,134.17599487304688 30.3700008392334,121.41500091552734 44.534000396728516,101.89199829101562 C44.534000396728516,101.89199829101562 48.4900016784668,128.94400024414062 48.4900016784668,128.94400024414062 C48.4900016784668,128.94400024414062 120.71399688720703,128.94400024414062 120.71399688720703,128.94400024414062 C120.71399688720703,128.94400024414062 120.71399688720703,-26.988000869750977 120.71399688720703,-26.988000869750977z"></path></g></g><g transform="matrix(1,0,0,1,2043.3310546875,241.68499755859375)" opacity="1" style="display: block;"><g opacity="1" transform="matrix(1,0,0,1,0,0)"><path fill="rgb(0,0,0)" fill-opacity="1" d=" M119.43800354003906,-37.26100158691406 C119.43800354003906,-94.81099700927734 80.39099884033203,-131.55999755859375 26.413999557495117,-131.55999755859375 C26.413999557495117,-131.55999755859375 26.159000396728516,-131.55999755859375 26.159000396728516,-131.55999755859375 C-3.444999933242798,-131.55999755859375 -28.200000762939453,-116.88600158691406 -42.875,-92.13099670410156 C-42.875,-92.13099670410156 -46.83100128173828,-126.20099639892578 -46.83100128173828,-126.20099639892578 C-46.83100128173828,-126.20099639892578 -119.43800354003906,-126.20099639892578 -119.43800354003906,-126.20099639892578 C-119.43800354003906,-126.20099639892578 -119.43800354003906,131.55999755859375 -119.43800354003906,131.55999755859375 C-119.43800354003906,131.55999755859375 -37.89899826049805,131.55999755859375 -37.89899826049805,131.55999755859375 C-37.89899826049805,131.55999755859375 -37.89899826049805,-15.951000213623047 -37.89899826049805,-15.951000213623047 C-37.89899826049805,-40.83399963378906 -22.840999603271484,-58.060001373291016 1.531000018119812,-58.060001373291016 C22.840999603271484,-58.060001373291016 37.89799880981445,-43.38600158691406 37.89799880981445,-19.52400016784668 C37.89799880981445,-19.52400016784668 37.89799880981445,131.43299865722656 37.89799880981445,131.43299865722656 C37.89799880981445,131.43299865722656 119.43800354003906,131.43299865722656 119.43800354003906,131.43299865722656 C119.43800354003906,131.43299865722656 119.43800354003906,-37.26100158691406 119.43800354003906,-37.26100158691406z"></path></g></g><g transform="matrix(1,0,0,1,1856.76904296875,186.6219940185547)" opacity="1" style="display: block;"><g opacity="1" transform="matrix(1,0,0,1,0,0)"><path fill="rgb(0,0,0)" fill-opacity="1" d=" M40.70600128173828,186.6219940185547 C40.70600128173828,186.6219940185547 40.70600128173828,-71.13999938964844 40.70600128173828,-71.13999938964844 C40.70600128173828,-71.13999938964844 -40.83300018310547,-71.13999938964844 -40.83300018310547,-71.13999938964844 C-40.83300018310547,-71.13999938964844 -40.83300018310547,186.6219940185547 -40.83300018310547,186.6219940185547 C-40.83300018310547,186.6219940185547 40.70600128173828,186.6219940185547 40.70600128173828,186.6219940185547z M-49.63800048828125,-139.27999877929688 C-49.63800048828125,-111.84500122070312 -28.839000701904297,-91.93900299072266 0,-91.93900299072266 C28.839000701904297,-91.93900299072266 49.63800048828125,-111.84500122070312 49.63800048828125,-139.27999877929688 C49.63800048828125,-166.71499633789062 28.839000701904297,-186.6219940185547 0,-186.6219940185547 C-28.839000701904297,-186.6219940185547 -49.63800048828125,-166.71499633789062 -49.63800048828125,-139.27999877929688z"></path></g></g><g transform="matrix(1,0,0,1,1661.4739990234375,210.29100036621094)" opacity="1" style="display: block;"><g opacity="1" transform="matrix(1,0,0,1,0,0)"><path fill="rgb(0,0,0)" fill-opacity="1" d=" M46.25699996948242,34.06999969482422 C46.25699996948242,71.2030029296875 29.030000686645508,94.68299865722656 0.7020000219345093,94.68299865722656 C-27.625999450683594,94.68299865722656 -46.25600051879883,72.09600067138672 -46.25600051879883,34.06999969482422 C-46.25600051879883,-3.9560000896453857 -27.625999450683594,-26.54199981689453 0.7020000219345093,-26.54199981689453 C29.030000686645508,-26.54199981689453 46.25699996948242,-3.062999963760376 46.25699996948242,34.06999969482422z M127.7959976196289,-168.30999755859375 C127.7959976196289,-168.30999755859375 46.25699996948242,-168.30999755859375 46.25699996948242,-168.30999755859375 C46.25699996948242,-168.30999755859375 46.25699996948242,-73.11699676513672 46.25699996948242,-73.11699676513672 C30.68899917602539,-89.96099853515625 8.996000289916992,-100.16999816894531 -14.866000175476074,-100.16999816894531 C-80.83799743652344,-100.16999816894531 -127.7959976196289,-47.08700180053711 -127.7959976196289,34.06999969482422 C-127.7959976196289,115.22699737548828 -80.45500183105469,168.30999755859375 -14.866000175476074,168.30999755859375 C12.185999870300293,168.30999755859375 36.17599868774414,155.93299865722656 51.61600112915039,134.6230010986328 C51.61600112915039,134.6230010986328 55.571998596191406,162.9510040283203 55.571998596191406,162.9510040283203 C55.571998596191406,162.9510040283203 127.7959976196289,162.9510040283203 127.7959976196289,162.9510040283203 C127.7959976196289,162.9510040283203 127.7959976196289,-168.30999755859375 127.7959976196289,-168.30999755859375z"></path></g></g><g transform="matrix(1,0,0,1,1451.8050537109375,244.36300659179688)" opacity="1" style="display: block;"><g opacity="1" transform="matrix(1,0,0,1,0,0)"><path fill="rgb(0,0,0)" fill-opacity="1" d=" M88.36599731445312,-58.060001373291016 C88.36599731445312,-58.060001373291016 79.56099700927734,-128.88099670410156 79.56099700927734,-128.88099670410156 C79.56099700927734,-128.88099670410156 79.43399810791016,-128.88099670410156 79.43399810791016,-128.88099670410156 C79.43399810791016,-128.88099670410156 40.513999938964844,-128.88099670410156 40.513999938964844,-128.88099670410156 C16.652000427246094,-128.88099670410156 -2.871000051498413,-114.71700286865234 -11.293000221252441,-92.13099670410156 C-11.293000221252441,-92.13099670410156 -15.758999824523926,-128.88099670410156 -15.758999824523926,-128.88099670410156 C-15.758999824523926,-128.88099670410156 -88.36599731445312,-128.88099670410156 -88.36599731445312,-128.88099670410156 C-88.36599731445312,-128.88099670410156 -88.36599731445312,128.88099670410156 -88.36599731445312,128.88099670410156 C-88.36599731445312,128.88099670410156 -6.827000141143799,128.88099670410156 -6.827000141143799,128.88099670410156 C-6.827000141143799,128.88099670410156 -6.827000141143799,9.3149995803833 -6.827000141143799,9.3149995803833 C-6.827000141143799,-31.900999069213867 12.567999839782715,-58.060001373291016 46.25600051879883,-58.060001373291016 C46.25600051879883,-58.060001373291016 88.36599731445312,-58.060001373291016 88.36599731445312,-58.060001373291016z"></path></g></g><g transform="matrix(1,0,0,1,1220.1590576171875,244.23199462890625)" opacity="1" style="display: block;"><g opacity="1" transform="matrix(1,0,0,1,0,0)"><path fill="rgb(0,0,0)" fill-opacity="1" d=" M46.448001861572266,0.12800000607967377 C46.448001861572266,38.5369987487793 28.327999114990234,60.7400016784668 0,60.7400016784668 C-27.81800079345703,60.7400016784668 -46.448001861572266,38.5369987487793 -46.448001861572266,0.12800000607967377 C-46.448001861572266,-38.28099822998047 -28.327999114990234,-60.48500061035156 0,-60.48500061035156 C28.327999114990234,-60.48500061035156 46.448001861572266,-38.28099822998047 46.448001861572266,0.12800000607967377z M-127.98699951171875,0 C-127.98699951171875,82.81500244140625 -77.96600341796875,134.24000549316406 0,134.24000549316406 C78.3489990234375,134.24000549316406 127.98699951171875,82.81500244140625 127.98699951171875,0 C127.98699951171875,-82.81500244140625 77.45600128173828,-134.24000549316406 0,-134.24000549316406 C-77.45600128173828,-134.24000549316406 -127.98699951171875,-82.81500244140625 -127.98699951171875,0z"></path></g></g><g transform="matrix(1,0,0,1,958.1599731445312,244.30099487304688)" opacity="1" style="display: block;"><g opacity="1" transform="matrix(1,0,0,1,0,0)"><path fill="rgb(0,0,0)" fill-opacity="1" d=" M39.301998138427734,29.28499984741211 C39.301998138427734,44.34199905395508 24.628000259399414,66.92900085449219 3.828000068664551,66.92900085449219 C-10.336000442504883,66.92900085449219 -20.54400062561035,59.016998291015625 -20.54400062561035,47.02199935913086 C-20.54400062561035,32.72999954223633 -9.0600004196167,24.819000244140625 9.569999694824219,24.819000244140625 C9.569999694824219,24.819000244140625 39.301998138427734,24.819000244140625 39.301998138427734,24.819000244140625 C39.301998138427734,24.819000244140625 39.301998138427734,29.28499984741211 39.301998138427734,29.28499984741211z M120.71399688720703,-26.988000869750977 C120.71399688720703,-89.89700317382812 72.47899627685547,-134.17599487304688 -1.0210000276565552,-134.17599487304688 C-1.0210000276565552,-134.17599487304688 -1.1490000486373901,-134.17599487304688 -1.1490000486373901,-134.17599487304688 C-56.9119987487793,-134.17599487304688 -111.90899658203125,-101.38200378417969 -120.71399688720703,-42.93899917602539 C-120.71399688720703,-42.93899917602539 -44.1510009765625,-34.516998291015625 -44.1510009765625,-34.516998291015625 C-38.79199981689453,-54.42300033569336 -21.05500030517578,-65.90799713134766 -1.1490000486373901,-65.90799713134766 C23.733999252319336,-65.90799713134766 39.17499923706055,-50.849998474121094 39.17499923706055,-26.988000869750977 C39.17499923706055,-26.988000869750977 5.104000091552734,-26.988000869750977 5.104000091552734,-26.988000869750977 C-58.1879997253418,-26.988000869750977 -101.19100189208984,1.3389999866485596 -101.19100189208984,57.612998962402344 C-101.19100189208984,106.74099731445312 -65.33399963378906,134.17599487304688 -21.437999725341797,134.17599487304688 C6.506999969482422,134.17599487304688 30.3700008392334,121.41500091552734 44.534000396728516,101.89199829101562 C44.534000396728516,101.89199829101562 48.4900016784668,128.94400024414062 48.4900016784668,128.94400024414062 C48.4900016784668,128.94400024414062 120.71399688720703,128.94400024414062 120.71399688720703,128.94400024414062 C120.71399688720703,128.94400024414062 120.71399688720703,-26.988000869750977 120.71399688720703,-26.988000869750977z"></path></g></g><g transform="matrix(1,0,0,1,755.9760131835938,244.36300659179688)" opacity="1" style="display: block;"><g opacity="1" transform="matrix(1,0,0,1,0,0)"><path fill="rgb(0,0,0)" fill-opacity="1" d=" M88.36599731445312,-58.060001373291016 C88.36599731445312,-58.060001373291016 79.56099700927734,-128.88099670410156 79.56099700927734,-128.88099670410156 C79.56099700927734,-128.88099670410156 79.43399810791016,-128.88099670410156 79.43399810791016,-128.88099670410156 C79.43399810791016,-128.88099670410156 40.513999938964844,-128.88099670410156 40.513999938964844,-128.88099670410156 C16.652000427246094,-128.88099670410156 -2.871000051498413,-114.71700286865234 -11.293000221252441,-92.13099670410156 C-11.293000221252441,-92.13099670410156 -15.758999824523926,-128.88099670410156 -15.758999824523926,-128.88099670410156 C-15.758999824523926,-128.88099670410156 -88.36599731445312,-128.88099670410156 -88.36599731445312,-128.88099670410156 C-88.36599731445312,-128.88099670410156 -88.36599731445312,128.88099670410156 -88.36599731445312,128.88099670410156 C-88.36599731445312,128.88099670410156 -6.827000141143799,128.88099670410156 -6.827000141143799,128.88099670410156 C-6.827000141143799,128.88099670410156 -6.827000141143799,9.3149995803833 -6.827000141143799,9.3149995803833 C-6.827000141143799,-31.900999069213867 12.567999839782715,-58.060001373291016 46.25600051879883,-58.060001373291016 C46.25600051879883,-58.060001373291016 88.36599731445312,-58.060001373291016 88.36599731445312,-58.060001373291016z"></path></g></g><g transform="matrix(1,0,0,1,562.3579711914062,204.86599731445312)" opacity="1" style="display: block;"><g opacity="1" transform="matrix(1,0,0,1,0,0)"><path fill="rgb(0,0,0)" fill-opacity="1" d=" M92.25800323486328,97.4260025024414 C92.25800323486328,97.4260025024414 47.08599853515625,97.4260025024414 47.08599853515625,97.4260025024414 C47.08599853515625,97.4260025024414 47.2140007019043,97.4260025024414 47.2140007019043,97.4260025024414 C37.132999420166016,97.4260025024414 29.98699951171875,90.40699768066406 29.98699951171875,80.1989974975586 C29.98699951171875,80.1989974975586 29.98699951171875,-18.56599998474121 29.98699951171875,-18.56599998474121 C29.98699951171875,-18.56599998474121 83.58100128173828,-18.56599998474121 83.58100128173828,-18.56599998474121 C83.58100128173828,-18.56599998474121 83.58100128173828,-89.38700103759766 83.58100128173828,-89.38700103759766 C83.58100128173828,-89.38700103759766 29.98699951171875,-89.38700103759766 29.98699951171875,-89.38700103759766 C29.98699951171875,-89.38700103759766 29.98699951171875,-168.2469940185547 29.98699951171875,-168.2469940185547 C29.98699951171875,-168.2469940185547 -51.551998138427734,-137.23899841308594 -51.551998138427734,-137.23899841308594 C-51.551998138427734,-137.23899841308594 -51.551998138427734,-89.38700103759766 -51.551998138427734,-89.38700103759766 C-51.551998138427734,-89.38700103759766 -92.25800323486328,-89.38700103759766 -92.25800323486328,-89.38700103759766 C-92.25800323486328,-89.38700103759766 -92.25800323486328,-18.56599998474121 -92.25800323486328,-18.56599998474121 C-92.25800323486328,-18.56599998474121 -51.551998138427734,-18.56599998474121 -51.551998138427734,-18.56599998474121 C-51.551998138427734,-18.56599998474121 -51.551998138427734,91.68399810791016 -51.551998138427734,91.68399810791016 C-51.551998138427734,138.1320037841797 -21.054000854492188,168.2469940185547 25.01099967956543,168.2469940185547 C25.01099967956543,168.2469940185547 83.4540023803711,168.2469940185547 83.4540023803711,168.2469940185547 C83.4540023803711,168.2469940185547 92.25800323486328,97.4260025024414 92.25800323486328,97.4260025024414z"></path></g></g><g transform="matrix(1,0,0,1,352.8219909667969,244.36300659179688)" opacity="1" style="display: block;"><g opacity="1" transform="matrix(1,0,0,1,0,0)"><path fill="rgb(0,0,0)" fill-opacity="1" d=" M32.53900146484375,128.88099670410156 C32.53900146484375,128.88099670410156 128.2429962158203,128.88099670410156 128.2429962158203,128.88099670410156 C128.2429962158203,128.88099670410156 128.2429962158203,128.7530059814453 128.2429962158203,128.7530059814453 C128.2429962158203,128.7530059814453 47.59600067138672,-0.5099999904632568 47.59600067138672,-0.5099999904632568 C47.59600067138672,-0.5099999904632568 127.73200225830078,-128.88099670410156 127.73200225830078,-128.88099670410156 C127.73200225830078,-128.88099670410156 33.814998626708984,-128.88099670410156 33.814998626708984,-128.88099670410156 C33.814998626708984,-128.88099670410156 0.6380000114440918,-75.7969970703125 0.6380000114440918,-75.7969970703125 C0.6380000114440918,-75.7969970703125 -32.53900146484375,-128.88099670410156 -32.53900146484375,-128.88099670410156 C-32.53900146484375,-128.88099670410156 -128.2429962158203,-128.88099670410156 -128.2429962158203,-128.88099670410156 C-128.2429962158203,-128.88099670410156 -47.2140007019043,0.8930000066757202 -47.2140007019043,0.8930000066757202 C-47.2140007019043,0.8930000066757202 -127.3489990234375,128.88099670410156 -127.3489990234375,128.88099670410156 C-127.3489990234375,128.88099670410156 -33.04999923706055,128.88099670410156 -33.04999923706055,128.88099670410156 C-33.04999923706055,128.88099670410156 -0.2549999952316284,76.18000030517578 -0.2549999952316284,76.18000030517578 C-0.2549999952316284,76.18000030517578 32.53900146484375,128.88099670410156 32.53900146484375,128.88099670410156z"></path></g></g><g transform="matrix(1,0,0,1,124.47799682617188,244.23199462890625)" opacity="1" style="display: block;"><g opacity="1" transform="matrix(1,0,0,1,0,0)"><path fill="rgb(0,0,0)" fill-opacity="1" d=" M-43.70500183105469,-33.94300079345703 C-37.06999969482422,-56.145999908447266 -19.843000411987305,-68.52400207519531 1.850000023841858,-68.52400207519531 C24.945999145507812,-68.52400207519531 42.683998107910156,-55.25299835205078 43.959999084472656,-33.94300079345703 C43.959999084472656,-33.94300079345703 -43.70500183105469,-33.94300079345703 -43.70500183105469,-33.94300079345703z M124.47799682617188,50.53099822998047 C124.47799682617188,50.53099822998047 48.808998107910156,36.367000579833984 48.808998107910156,36.367000579833984 C48.808998107910156,36.367000579833984 48.680999755859375,36.2400016784668 48.680999755859375,36.2400016784668 C42.555999755859375,53.08399963378906 26.606000900268555,62.78099822998047 6.189000129699707,62.78099822998047 C-22.649999618530273,62.78099822998047 -40.2599983215332,42.36399841308594 -45.61899948120117,17.608999252319336 C-45.61899948120117,17.608999252319336 120.3949966430664,17.608999252319336 120.3949966430664,17.608999252319336 C136.72799682617188,-68.6520004272461 82.7509994506836,-134.24000549316406 -0.06400000303983688,-134.24000549316406 C-77.13700103759766,-134.24000549316406 -124.47799682617188,-72.73500061035156 -124.47799682617188,0 C-124.47799682617188,72.73500061035156 -73.0530014038086,134.24000549316406 6.189000129699707,134.24000549316406 C63.35599899291992,134.24000549316406 113.88700103759766,104.50800323486328 124.47799682617188,50.53099822998047z"></path></g></g></g></svg>