<svg width="172" height="34" viewBox="0 0 172 34" fill="none" xmlns="http://www.w3.org/2000/svg">
<mask id="path-1-inside-1_1787_90" fill="white">
<path fill-rule="evenodd" clip-rule="evenodd" d="M21.1955 2.68931C17.5808 1.38433 13.6063 1.49465 10.0696 2.99814C6.53287 4.50163 3.69557 7.28704 2.12706 10.7954C0.558556 14.3038 0.374896 18.2756 1.61294 21.9138L1.01047 22.1188C0.950495 22.1135 0.890611 22.108 0.830826 22.1022C-0.446436 18.2916 -0.245497 14.139 1.39555 10.4684C3.04661 6.77534 6.03324 3.84334 9.75613 2.26072C13.479 0.6781 17.6627 0.561971 21.4676 1.93563C24.5092 3.0337 27.1289 5.01881 29.0043 7.60785C28.7644 7.75137 28.5464 7.90514 28.3468 8.06607C26.5657 5.61227 24.0804 3.7308 21.1955 2.68931ZM3.02143 26.3686L3.01857 26.3707C5.38165 29.654 8.89902 31.9222 12.8649 32.7201C16.8307 33.518 20.9516 32.7866 24.4006 30.6726C27.8496 28.5585 30.3715 25.2184 31.4602 21.3223C32.4452 17.7977 32.1913 14.054 30.7616 10.7099C30.5751 10.9587 30.3768 11.1821 30.1738 11.3861C31.3995 14.4699 31.5889 17.8846 30.6885 21.1067C29.6542 24.8079 27.2584 27.9811 23.9818 29.9894C20.7053 31.9977 16.7905 32.6926 13.0229 31.9346C9.39671 31.205 6.16519 29.1815 3.9262 26.2496C3.61903 26.2971 3.31721 26.3369 3.02143 26.3686Z"/>
</mask>
<path d="M10.0696 2.99814L10.3831 3.73556L10.3831 3.73556L10.0696 2.99814ZM21.1955 2.68931L20.9234 3.44299L20.9234 3.44299L21.1955 2.68931ZM2.12706 10.7954L1.39555 10.4684L1.39555 10.4684L2.12706 10.7954ZM1.61294 21.9138L1.87107 22.6723L2.62965 22.4142L2.37151 21.6556L1.61294 21.9138ZM1.01047 22.1188L0.940033 22.917L1.1085 22.9318L1.26861 22.8773L1.01047 22.1188ZM0.830826 22.1022L0.0710793 22.3568L0.236336 22.8499L0.753929 22.8998L0.830826 22.1022ZM1.39555 10.4684L0.664041 10.1413L0.66404 10.1413L1.39555 10.4684ZM9.75613 2.26072L10.0696 2.99814L10.0696 2.99814L9.75613 2.26072ZM21.4676 1.93563L21.7397 1.18196L21.7397 1.18196L21.4676 1.93563ZM29.0043 7.60785L29.4157 8.29545L30.1664 7.84626L29.6532 7.13779L29.0043 7.60785ZM28.3468 8.06607L27.6983 8.53676L28.1935 9.21895L28.8497 8.68987L28.3468 8.06607ZM3.02143 26.3686L2.93612 25.5719L2.7254 25.5944L2.55339 25.7182L3.02143 26.3686ZM3.01857 26.3707L2.55052 25.7203L1.90011 26.1884L2.36821 26.8388L3.01857 26.3707ZM12.8649 32.7201L12.7068 33.5057L12.7068 33.5057L12.8649 32.7201ZM24.4006 30.6726L24.8193 31.3557L24.8193 31.3557L24.4006 30.6726ZM31.4602 21.3223L32.2319 21.538L32.2319 21.538L31.4602 21.3223ZM30.7616 10.7099L31.4984 10.3949L30.953 9.11904L30.1205 10.2292L30.7616 10.7099ZM30.1738 11.3861L29.6057 10.821L29.2351 11.1937L29.4292 11.6821L30.1738 11.3861ZM30.6885 21.1067L29.9168 20.891L29.9168 20.891L30.6885 21.1067ZM23.9818 29.9894L23.5631 29.3062L23.5631 29.3062L23.9818 29.9894ZM13.0229 31.9346L12.8649 32.7201L12.8649 32.7201L13.0229 31.9346ZM3.9262 26.2496L4.56303 25.7633L4.27408 25.3849L3.80359 25.4577L3.9262 26.2496ZM10.3831 3.73556C13.7337 2.31121 17.499 2.20669 20.9234 3.44299L21.4676 1.93563C17.6627 0.561971 13.479 0.6781 9.75613 2.26072L10.3831 3.73556ZM2.85857 11.1225C4.34453 7.79873 7.0325 5.15992 10.3831 3.73556L9.75613 2.26072C6.03324 3.84334 3.04661 6.77534 1.39555 10.4684L2.85857 11.1225ZM2.37151 21.6556C1.19863 18.2089 1.37262 14.4462 2.85857 11.1225L1.39555 10.4684C-0.255509 14.1614 -0.448835 18.3422 0.854368 22.1719L2.37151 21.6556ZM1.26861 22.8773L1.87107 22.6723L1.3548 21.1552L0.752336 21.3602L1.26861 22.8773ZM1.08091 21.3206C1.02307 21.3155 0.965341 21.3102 0.907722 21.3046L0.753929 22.8998C0.815882 22.9057 0.877918 22.9115 0.940033 22.917L1.08091 21.3206ZM0.66404 10.1413C-1.05906 13.9955 -1.27005 18.3557 0.0710793 22.3568L1.59057 21.8475C0.377174 18.2274 0.568067 14.2825 2.12706 10.7954L0.66404 10.1413ZM9.44264 1.5233C5.53362 3.18505 2.39765 6.26365 0.664041 10.1413L2.12706 10.7954C3.69557 7.28704 6.53287 4.50163 10.0696 2.99814L9.44264 1.5233ZM21.7397 1.18196C17.7445 -0.260389 13.3517 -0.138453 9.44264 1.5233L10.0696 2.99814C13.6063 1.49465 17.5808 1.38433 21.1955 2.68931L21.7397 1.18196ZM29.6532 7.13779C27.684 4.41931 24.9334 2.33494 21.7397 1.18196L21.1955 2.68931C24.085 3.73247 26.5737 5.61831 28.3554 8.07791L29.6532 7.13779ZM28.8497 8.68987C29.0213 8.55152 29.2089 8.41922 29.4157 8.29545L28.5929 6.92026C28.32 7.08352 28.0715 7.25876 27.8439 7.44227L28.8497 8.68987ZM20.9234 3.44299C23.6564 4.42966 26.011 6.21209 27.6983 8.53676L28.9953 7.59539C27.1205 5.01245 24.5043 3.03195 21.4676 1.93563L20.9234 3.44299ZM2.55339 25.7182L2.55052 25.7203L3.48661 27.0211L3.48948 27.019L2.55339 25.7182ZM2.36821 26.8388C4.84945 30.2863 8.54269 32.6679 12.7068 33.5057L13.0229 31.9346C9.25536 31.1766 5.91386 29.0218 3.66893 25.9026L2.36821 26.8388ZM12.7068 33.5057C16.871 34.3435 21.1979 33.5754 24.8193 31.3557L23.9818 29.9894C20.7053 31.9977 16.7905 32.6926 13.0229 31.9346L12.7068 33.5057ZM24.8193 31.3557C28.4407 29.136 31.0887 25.6288 32.2319 21.538L30.6885 21.1067C29.6542 24.8079 27.2584 27.9811 23.9818 29.9894L24.8193 31.3557ZM32.2319 21.538C33.2662 17.8371 32.9995 13.9062 31.4984 10.3949L30.0248 11.0249C31.383 14.2017 31.6242 17.7583 30.6885 21.1067L32.2319 21.538ZM30.1205 10.2292C29.9594 10.444 29.7864 10.6394 29.6057 10.821L30.7419 11.9512C30.9672 11.7247 31.1907 11.4734 31.4027 11.1906L30.1205 10.2292ZM29.4292 11.6821C30.5904 14.6035 30.7698 17.8386 29.9168 20.891L31.4602 21.3223C32.408 17.9307 32.2087 14.3362 30.9185 11.0902L29.4292 11.6821ZM29.9168 20.891C28.9369 24.3975 26.6672 27.4036 23.5631 29.3062L24.4006 30.6726C27.8496 28.5585 30.3715 25.2184 31.4602 21.3223L29.9168 20.891ZM23.5631 29.3062C20.459 31.2088 16.7502 31.8671 13.181 31.149L12.8649 32.7201C16.8307 33.518 20.9516 32.7866 24.4006 30.6726L23.5631 29.3062ZM13.181 31.149C9.74562 30.4579 6.68417 28.5409 4.56303 25.7633L3.28937 26.7359C5.64622 29.8222 9.04781 31.9522 12.8649 32.7201L13.181 31.149ZM3.10674 27.1654C3.41576 27.1323 3.73004 27.0908 4.04882 27.0414L3.80359 25.4577C3.50802 25.5035 3.21866 25.5416 2.93612 25.5719L3.10674 27.1654Z" fill="white" mask="url(#path-1-inside-1_1787_90)"/>
<path fill-rule="evenodd" clip-rule="evenodd" d="M19.3169 32.3015C19.3169 32.3015 25.5831 25.9278 25.5831 17.077C25.5831 16.1812 25.5189 15.3098 25.4035 14.4671C21.5653 19.6619 10.6882 25.42 3.32605 26.3327C6.95071 31.1502 13.0753 34.2766 19.3169 32.3015ZM0.978882 22.1153C9.23542 22.855 19.3076 19.1078 25.2482 13.5069C23.9494 6.54154 19.3169 1.76442 19.3169 1.76442C8.91619 -0.647451 0.00585938 8.22625 0.00585938 17.077C0.00585938 18.7643 0.351497 20.4742 0.978882 22.1153Z" fill="white"/>
<g clip-path="url(#clip0_1787_90)">
<path fill-rule="evenodd" clip-rule="evenodd" d="M27.0273 10.4738L26.1189 10.3819C26.1109 10.3795 26.1036 10.3751 26.0978 10.369C26.0921 10.363 26.088 10.3555 26.086 10.3473C26.0841 10.3392 26.0843 10.3307 26.0867 10.3226C26.0891 10.3146 26.0936 10.3074 26.0997 10.3016L26.5366 9.81871C26.6082 9.74046 26.6953 9.67805 26.7925 9.63551C26.8896 9.59296 26.9946 9.57122 27.1007 9.57168L27.6025 9.62207C28.1888 8.74163 29.0427 7.7742 30.9546 7.44131C31.0025 7.4325 31.0519 7.43488 31.0988 7.44827C31.1457 7.46166 31.1888 7.4857 31.2249 7.51851C31.261 7.55132 31.289 7.59202 31.3068 7.63744C31.3245 7.68285 31.3316 7.73176 31.3273 7.78034C31.189 9.71648 30.2997 10.6532 29.4797 11.3246L29.5938 11.8283C29.6044 11.934 29.5928 12.0408 29.5596 12.1418C29.5264 12.2427 29.4724 12.3356 29.4011 12.4144L28.9643 12.8973C28.959 12.9032 28.9524 12.9077 28.945 12.9104C28.9377 12.9132 28.9297 12.914 28.9219 12.9129C28.9141 12.9117 28.9067 12.9087 28.9004 12.904C28.8941 12.8993 28.889 12.8932 28.8857 12.886L28.7026 11.9933C28.5575 12.0594 28.4343 12.089 28.2977 12.1219C28.2415 12.1354 28.1831 12.1495 28.12 12.1668L27.6522 12.5781C27.3569 12.0154 27.1094 11.8032 26.5421 11.584L26.9124 11.0716C26.9218 11.0163 26.9291 10.9647 26.936 10.915L27.6107 10.8355C27.718 10.8167 28.5111 10.7257 28.5978 10.7174C28.6362 10.7137 28.6745 10.7103 28.7129 10.7069C28.7883 10.7002 28.8636 10.6935 28.9387 10.6847C29.1187 10.6636 29.2931 10.6205 29.4567 10.5399C29.5716 10.4832 29.6758 10.4113 29.7696 10.3241C29.8297 10.2682 29.8867 10.2097 29.9339 10.1423C30.1261 9.86799 30.1444 9.50099 29.9369 9.21811C29.8434 9.09063 29.7267 8.99183 29.5755 8.94022C29.3692 8.86981 29.1734 8.89345 28.996 9.02268C28.8559 9.12477 28.7666 9.26118 28.7473 9.43656C28.7313 9.58188 28.7725 9.71105 28.8667 9.82294C28.9255 9.89284 28.9961 9.9464 29.0858 9.96957C29.2077 10.0012 29.3193 9.97447 29.4211 9.90314C29.4871 9.85691 29.5366 9.79767 29.5586 9.71828C29.5962 9.58255 29.5244 9.43154 29.3986 9.38197C29.2989 9.34267 29.2075 9.39163 29.1654 9.46572C29.133 9.52275 29.1463 9.57898 29.1806 9.63099C29.2066 9.67051 29.2431 9.69807 29.2886 9.71661C29.2649 9.75211 29.2316 9.76378 29.1927 9.76073C29.1297 9.75581 29.0796 9.7248 29.041 9.67685C28.9525 9.56669 28.9508 9.42302 29.0361 9.30906C29.1179 9.19994 29.2312 9.15542 29.3678 9.15072C29.3656 9.15313 29.3637 9.1552 29.362 9.15706C29.3587 9.1606 29.3561 9.16341 29.3539 9.16651C29.3498 9.17228 29.3455 9.17794 29.3413 9.18361C29.3306 9.19769 29.32 9.21178 29.3125 9.22737C29.2977 9.25824 29.3095 9.29021 29.3364 9.30517C29.3619 9.31935 29.3883 9.31243 29.3995 9.28856C29.4105 9.26518 29.4 9.24415 29.3718 9.23305L29.3666 9.23083C29.3876 9.19604 29.4184 9.17476 29.4556 9.16191C29.4587 9.16082 29.4627 9.1619 29.4665 9.16294C29.4676 9.16321 29.4686 9.16349 29.4696 9.16372C29.5484 9.18269 29.6145 9.22255 29.67 9.28204C29.7358 9.35253 29.784 9.43238 29.8091 9.52562C29.8354 9.62358 29.8333 9.72121 29.8039 9.81829C29.8029 9.82129 29.8018 9.82425 29.8019 9.82415C29.7964 9.81695 29.791 9.80958 29.7856 9.80216C29.7725 9.78412 29.7591 9.7658 29.744 9.74908C29.7325 9.73619 29.7161 9.72593 29.6999 9.71931C29.6732 9.70834 29.6431 9.72172 29.6292 9.74704C29.6187 9.76612 29.6246 9.79157 29.6421 9.80284C29.6613 9.81524 29.6807 9.81147 29.6959 9.79223C29.6978 9.7898 29.6996 9.78724 29.7016 9.78434C29.7026 9.78295 29.7036 9.78148 29.7047 9.77992C29.7297 9.80145 29.744 9.82871 29.7529 9.8592C29.7633 9.89515 29.7607 9.92785 29.7375 9.96027C29.6894 10.0274 29.6322 10.0854 29.5696 10.1384C29.4208 10.2642 29.2474 10.3389 29.0591 10.3819C29.0567 10.3825 29.0543 10.3828 29.052 10.3831C29.0509 10.3833 29.0498 10.3834 29.0488 10.3836C29.0529 10.3771 29.0572 10.3707 29.0614 10.3643C29.0708 10.3501 29.0802 10.3361 29.0878 10.3212C29.1082 10.2817 29.1159 10.2395 29.1061 10.1954C29.0972 10.1551 29.0686 10.1335 29.0332 10.1391C29.0094 10.1429 28.9935 10.1602 28.9937 10.1823C28.9938 10.2088 29.0158 10.2265 29.0417 10.2206C29.0454 10.2198 29.049 10.2185 29.0537 10.2168C29.056 10.216 29.0586 10.2151 29.0615 10.2141C29.0606 10.2196 29.06 10.2249 29.0594 10.2301C29.0581 10.2407 29.057 10.2507 29.0538 10.26C29.0302 10.3288 28.9858 10.3796 28.9173 10.4057C28.8964 10.4137 28.873 10.4163 28.8505 10.4188C28.7791 10.4267 28.7077 10.4343 28.6364 10.4418C28.5772 10.4481 28.5179 10.4544 28.4587 10.4608L28.0357 10.5104C28.0357 10.5104 27.4241 10.5777 26.9806 10.6413C26.9924 10.5878 27.0073 10.5327 27.0273 10.4738Z" fill="white"/>
</g>
<path d="M26.5775 13.2947C27.0373 13.1732 27.3813 12.413 27.3813 12.413C26.8894 12.5819 26.5775 13.2947 26.5775 13.2947Z" fill="white"/>
<path d="M25.8629 13.37C26.4726 13.2055 27.0656 12.1222 27.0656 12.1222C26.4137 12.3509 25.8629 13.37 25.8629 13.37Z" fill="white"/>
<path d="M25.8868 12.7C26.3466 12.5788 26.7632 11.8438 26.7632 11.8438C26.2716 12.0124 25.8868 12.7 25.8868 12.7Z" fill="white"/>
<path d="M49.4659 27.4052C48.2962 27.4052 47.2434 27.0993 46.3077 26.4874C45.3899 25.8756 44.6611 25.1197 44.1212 24.22V32.8848H42.2857V13.0717H43.9323V15.798C44.4901 14.9162 45.2369 14.2054 46.1727 13.6656C47.1085 13.1077 48.1072 12.8288 49.169 12.8288C50.1407 12.8288 51.0315 13.0357 51.8413 13.4496C52.6511 13.8455 53.3529 14.3854 53.9468 15.0692C54.5407 15.753 54.9995 16.5359 55.3235 17.4176C55.6654 18.2814 55.8363 19.1812 55.8363 20.117C55.8363 21.4307 55.5664 22.6454 55.0265 23.7611C54.5047 24.8588 53.7668 25.7406 52.8131 26.4064C51.8593 27.0723 50.7436 27.4052 49.4659 27.4052ZM48.953 25.7856C49.7268 25.7856 50.4197 25.6326 51.0315 25.3267C51.6434 25.0028 52.1652 24.5709 52.5971 24.031C53.047 23.4911 53.3889 22.8883 53.6229 22.2225C53.8568 21.5386 53.9738 20.8368 53.9738 20.117C53.9738 19.3612 53.8388 18.6413 53.5689 17.9575C53.317 17.2737 52.948 16.6708 52.4622 16.1489C51.9763 15.6271 51.4184 15.2132 50.7886 14.9072C50.1587 14.6013 49.4749 14.4484 48.7371 14.4484C48.2692 14.4484 47.7833 14.5383 47.2794 14.7183C46.7756 14.8983 46.2897 15.1592 45.8218 15.5011C45.3719 15.825 44.994 16.1939 44.6881 16.6078C44.3821 17.0217 44.1932 17.4626 44.1212 17.9305V22.2495C44.4091 22.9153 44.796 23.5181 45.2819 24.058C45.7678 24.5799 46.3257 25.0028 46.9555 25.3267C47.6034 25.6326 48.2692 25.7856 48.953 25.7856ZM70.7687 27.1353H68.9332V19.2802C68.9332 17.6966 68.6543 16.5089 68.0964 15.7171C67.5385 14.9072 66.7377 14.5023 65.694 14.5023C65.0102 14.5023 64.3263 14.6823 63.6425 15.0422C62.9767 15.3841 62.3828 15.861 61.8609 16.4729C61.357 17.0667 60.9971 17.7506 60.7812 18.5244V27.1353H58.9456V7.43008H60.7812V16.2569C61.3391 15.2132 62.1129 14.3854 63.1026 13.7735C64.1104 13.1437 65.1811 12.8288 66.3148 12.8288C67.1246 12.8288 67.8085 12.9727 68.3663 13.2607C68.9422 13.5486 69.4011 13.9715 69.743 14.5293C70.1029 15.0692 70.3638 15.7081 70.5258 16.4459C70.6878 17.1657 70.7687 17.9845 70.7687 18.9023V27.1353ZM73.5493 23.0862C73.5493 22.2045 73.8012 21.4486 74.3051 20.8188C74.809 20.171 75.5018 19.6761 76.3836 19.3342C77.2834 18.9743 78.3181 18.7943 79.4878 18.7943C80.1716 18.7943 80.8825 18.8483 81.6203 18.9563C82.3581 19.0642 83.015 19.2262 83.5908 19.4421V18.2544C83.5908 17.0667 83.2399 16.122 82.5381 15.4201C81.8362 14.7183 80.8645 14.3674 79.6228 14.3674C78.867 14.3674 78.1202 14.5113 77.3823 14.7993C76.6625 15.0692 75.9067 15.4741 75.1149 16.014L74.4131 14.7183C75.3308 14.0884 76.2306 13.6206 77.1124 13.3146C77.9942 12.9907 78.894 12.8288 79.8117 12.8288C81.5393 12.8288 82.907 13.3236 83.9147 14.3134C84.9225 15.3032 85.4264 16.6708 85.4264 18.4164V24.9218C85.4264 25.1737 85.4803 25.3627 85.5883 25.4887C85.6963 25.5966 85.8673 25.6596 86.1012 25.6776V27.1353C85.9032 27.1532 85.7323 27.1712 85.5883 27.1892C85.4444 27.2072 85.3364 27.2072 85.2644 27.1892C84.8145 27.1712 84.4726 27.0273 84.2387 26.7573C84.0047 26.4874 83.8787 26.1995 83.8607 25.8936L83.8338 24.8678C83.2039 25.6776 82.3851 26.3075 81.3774 26.7573C80.3696 27.1892 79.3439 27.4052 78.3001 27.4052C77.4003 27.4052 76.5815 27.2162 75.8437 26.8383C75.1239 26.4424 74.557 25.9206 74.1431 25.2727C73.7472 24.6069 73.5493 23.8781 73.5493 23.0862ZM82.97 24.166C83.1679 23.914 83.3209 23.6711 83.4289 23.4372C83.5368 23.2032 83.5908 22.9963 83.5908 22.8163V20.7648C82.979 20.5309 82.3401 20.3509 81.6743 20.2249C81.0264 20.099 80.3696 20.036 79.7038 20.036C78.3901 20.036 77.3283 20.2969 76.5185 20.8188C75.7087 21.3407 75.3038 22.0515 75.3038 22.9513C75.3038 23.4732 75.4388 23.968 75.7087 24.4359C75.9787 24.8858 76.3746 25.2637 76.8965 25.5696C77.4183 25.8576 78.0302 26.0015 78.732 26.0015C79.6138 26.0015 80.4326 25.8306 81.1884 25.4887C81.9622 25.1467 82.5561 24.7058 82.97 24.166ZM94.0082 27.4052C92.8564 27.4052 91.7857 27.2162 90.7959 26.8383C89.8062 26.4604 88.9514 25.8846 88.2316 25.1107L88.9874 23.8151C89.7792 24.5529 90.571 25.0928 91.3628 25.4347C92.1726 25.7586 93.0274 25.9206 93.9272 25.9206C95.0249 25.9206 95.9157 25.7046 96.5995 25.2727C97.2834 24.8228 97.6253 24.184 97.6253 23.3562C97.6253 22.7983 97.4543 22.3754 97.1124 22.0875C96.7885 21.7816 96.3116 21.5386 95.6817 21.3587C95.0699 21.1607 94.3321 20.9538 93.4683 20.7378C92.4965 20.4679 91.6777 20.189 91.0119 19.901C90.364 19.5951 89.8692 19.2172 89.5272 18.7673C89.2033 18.2994 89.0414 17.6966 89.0414 16.9587C89.0414 16.041 89.2663 15.2852 89.7162 14.6913C90.1841 14.0795 90.8139 13.6206 91.6057 13.3146C92.4155 12.9907 93.3153 12.8288 94.3051 12.8288C95.3848 12.8288 96.3386 12.9997 97.1664 13.3416C97.9942 13.6835 98.669 14.1604 99.1909 14.7723L98.3001 16.014C97.7962 15.4381 97.1934 15.0152 96.4915 14.7453C95.8077 14.4574 95.0429 14.3134 94.1971 14.3134C93.6212 14.3134 93.0724 14.3944 92.5505 14.5563C92.0286 14.7003 91.5967 14.9522 91.2548 15.3121C90.9309 15.6541 90.7689 16.1309 90.7689 16.7428C90.7689 17.2467 90.8949 17.6426 91.1469 17.9305C91.3988 18.2004 91.7767 18.4344 92.2806 18.6323C92.7845 18.8123 93.4053 19.0102 94.1431 19.2262C95.2049 19.5141 96.1316 19.811 96.9234 20.117C97.7152 20.4049 98.3271 20.7828 98.759 21.2507C99.1909 21.7186 99.4068 22.3754 99.4068 23.2212C99.4068 24.5349 98.912 25.5606 97.9222 26.2985C96.9324 27.0363 95.6278 27.4052 94.0082 27.4052ZM108.514 27.4052C107.507 27.4052 106.571 27.2162 105.707 26.8383C104.843 26.4424 104.096 25.9116 103.467 25.2457C102.837 24.5619 102.342 23.7791 101.982 22.8973C101.64 22.0155 101.469 21.0707 101.469 20.063C101.469 18.7493 101.766 17.5436 102.36 16.4459C102.972 15.3481 103.809 14.4754 104.87 13.8275C105.932 13.1617 107.138 12.8288 108.487 12.8288C109.873 12.8288 111.079 13.1617 112.104 13.8275C113.148 14.4934 113.967 15.3751 114.561 16.4729C115.155 17.5526 115.452 18.7403 115.452 20.036C115.452 20.18 115.452 20.3239 115.452 20.4679C115.452 20.5939 115.443 20.6928 115.425 20.7648H103.386C103.476 21.7726 103.755 22.6723 104.222 23.4642C104.708 24.238 105.329 24.8588 106.085 25.3267C106.859 25.7766 107.696 26.0015 108.595 26.0015C109.513 26.0015 110.377 25.7676 111.187 25.2997C112.014 24.8318 112.59 24.22 112.914 23.4642L114.507 23.896C114.219 24.5619 113.778 25.1647 113.184 25.7046C112.59 26.2445 111.889 26.6674 111.079 26.9733C110.287 27.2612 109.432 27.4052 108.514 27.4052ZM103.332 19.4421H113.724C113.652 18.4164 113.373 17.5166 112.887 16.7428C112.419 15.969 111.799 15.3661 111.025 14.9342C110.269 14.4844 109.432 14.2594 108.514 14.2594C107.597 14.2594 106.76 14.4844 106.004 14.9342C105.248 15.3661 104.627 15.978 104.141 16.7698C103.674 17.5436 103.404 18.4344 103.332 19.4421ZM131.318 27.4052C130.167 27.4052 129.132 27.2162 128.214 26.8383C127.296 26.4424 126.513 25.9026 125.866 25.2187C125.236 24.5349 124.75 23.7521 124.408 22.8703C124.066 21.9885 123.895 21.0617 123.895 20.09C123.895 19.1002 124.066 18.1645 124.408 17.2827C124.75 16.4009 125.236 15.6181 125.866 14.9342C126.513 14.2504 127.296 13.7195 128.214 13.3416C129.132 12.9457 130.167 12.7478 131.318 12.7478C132.47 12.7478 133.496 12.9457 134.396 13.3416C135.313 13.7195 136.096 14.2504 136.744 14.9342C137.392 15.6181 137.878 16.4009 138.202 17.2827C138.544 18.1645 138.714 19.1002 138.714 20.09C138.714 21.0617 138.544 21.9885 138.202 22.8703C137.878 23.7521 137.392 24.5349 136.744 25.2187C136.114 25.9026 135.34 26.4424 134.423 26.8383C133.505 27.2162 132.47 27.4052 131.318 27.4052ZM127.62 20.09C127.62 20.9178 127.782 21.6556 128.106 22.3034C128.43 22.9333 128.871 23.4282 129.429 23.7881C129.987 24.148 130.616 24.3279 131.318 24.3279C132.002 24.3279 132.623 24.148 133.181 23.7881C133.739 23.4102 134.18 22.9063 134.504 22.2764C134.845 21.6286 135.016 20.8908 135.016 20.063C135.016 19.2532 134.845 18.5244 134.504 17.8765C134.18 17.2287 133.739 16.7248 133.181 16.3649C132.623 16.005 132.002 15.825 131.318 15.825C130.616 15.825 129.987 16.014 129.429 16.3919C128.871 16.7518 128.43 17.2557 128.106 17.9035C127.782 18.5334 127.62 19.2622 127.62 20.09ZM154.302 27.1353H150.685V19.1992C150.685 18.0655 150.487 17.2377 150.091 16.7158C149.695 16.1939 149.146 15.933 148.444 15.933C147.958 15.933 147.463 16.059 146.959 16.3109C146.474 16.5628 146.033 16.9138 145.637 17.3636C145.241 17.7955 144.953 18.2994 144.773 18.8753V27.1353H141.156V12.9907H144.422V15.6091C144.782 14.9972 145.241 14.4844 145.799 14.0705C146.357 13.6386 146.995 13.3146 147.715 13.0987C148.453 12.8647 149.227 12.7478 150.037 12.7478C150.919 12.7478 151.638 12.9097 152.196 13.2337C152.772 13.5396 153.204 13.9625 153.492 14.5023C153.798 15.0242 154.005 15.6181 154.113 16.2839C154.239 16.9497 154.302 17.6246 154.302 18.3084V27.1353ZM164.006 27.4052C162.872 27.4052 161.847 27.2162 160.929 26.8383C160.011 26.4424 159.228 25.9116 158.581 25.2457C157.933 24.5619 157.429 23.7881 157.069 22.9243C156.727 22.0425 156.556 21.1157 156.556 20.144C156.556 18.7943 156.853 17.5616 157.447 16.4459C158.059 15.3301 158.922 14.4394 160.038 13.7735C161.172 13.0897 162.504 12.7478 164.033 12.7478C165.581 12.7478 166.904 13.0897 168.001 13.7735C169.099 14.4394 169.936 15.3301 170.512 16.4459C171.105 17.5436 171.402 18.7313 171.402 20.009C171.402 20.2249 171.393 20.4499 171.375 20.6838C171.357 20.8998 171.339 21.0797 171.321 21.2237H160.389C160.461 21.9435 160.668 22.5734 161.01 23.1132C161.37 23.6531 161.82 24.067 162.36 24.3549C162.917 24.6249 163.511 24.7598 164.141 24.7598C164.861 24.7598 165.536 24.5889 166.166 24.247C166.814 23.887 167.254 23.4192 167.488 22.8433L170.593 23.7071C170.251 24.4269 169.756 25.0658 169.108 25.6236C168.478 26.1815 167.731 26.6224 166.868 26.9463C166.004 27.2522 165.05 27.4052 164.006 27.4052ZM160.308 18.9293H167.704C167.632 18.2094 167.425 17.5886 167.083 17.0667C166.76 16.5269 166.328 16.113 165.788 15.825C165.248 15.5191 164.645 15.3661 163.979 15.3661C163.331 15.3661 162.738 15.5191 162.198 15.825C161.676 16.113 161.244 16.5269 160.902 17.0667C160.578 17.5886 160.38 18.2094 160.308 18.9293Z" fill="white"/>
<defs>
<clipPath id="clip0_1787_90">
<rect width="7.5757" height="7.41751" fill="white" transform="translate(24.4092 7.18213) rotate(-2.86557)"/>
</clipPath>
</defs>
</svg>
